<svg width="50" height="50" viewBox="0 0 50 50" fill="none" xmlns="http://www.w3.org/2000/svg">
<path d="M31.25 0H6.25C2.8125 0 0.0312507 2.25 0.0312507 5L0 45C0 47.75 2.78125 50 6.21875 50H43.75C47.1875 50 50 47.75 50 45V15L31.25 0ZM25 40C18.5938 40 13.0938 36.9 10.6875 32.5H16.0312C18 34.75 21.2812 36.25 25 36.25C31.0312 36.25 35.9375 32.325 35.9375 27.5C35.9375 22.675 31.0312 18.75 25 18.75C20.7812 18.75 17.125 20.7 15.3125 23.5L20.3125 27.5H7.8125V17.5L11.875 20.75C14.6563 17.3 19.4688 15 25 15C33.625 15 40.625 20.6 40.625 27.5C40.625 34.4 33.625 40 25 40Z" fill="white"/>
</svg>
