<svg width="28" height="27" viewBox="0 0 28 27" fill="none" xmlns="http://www.w3.org/2000/svg">
<path d="M5.27838 11.5714C4.17381 11.5714 3.27838 12.4669 3.27838 13.5714V18.5714C3.27838 19.676 4.17382 20.5714 5.27838 20.5714H5.54154C6.64611 20.5714 7.54154 19.676 7.54154 18.5714V13.5714C7.54154 12.4669 6.64611 11.5714 5.54154 11.5714H5.27838ZM13.8047 11.5714C12.7001 11.5714 11.8047 12.4669 11.8047 13.5714V18.5714C11.8047 19.676 12.7001 20.5714 13.8047 20.5714H14.0679C15.1724 20.5714 16.0679 19.676 16.0679 18.5714V13.5714C16.0679 12.4669 15.1724 11.5714 14.0679 11.5714H13.8047ZM0.436279 25.0714C0.436279 26.1365 1.29973 27 2.36485 27H25.5077C26.5728 27 27.4363 26.1365 27.4363 25.0714V25.0714C27.4363 24.0063 26.5728 23.1429 25.5077 23.1429H2.36485C1.29973 23.1429 0.436279 24.0063 0.436279 25.0714V25.0714ZM22.331 11.5714C21.2264 11.5714 20.331 12.4669 20.331 13.5714V18.5714C20.331 19.676 21.2264 20.5714 22.331 20.5714H22.5942C23.6987 20.5714 24.5942 19.676 24.5942 18.5714V13.5714C24.5942 12.4669 23.6987 11.5714 22.5942 11.5714H22.331ZM14.7961 0.40946C14.2522 0.150422 13.6204 0.150422 13.0764 0.409461L1.33482 6.00069C0.785922 6.26208 0.436279 6.81583 0.436279 7.42379V7.42379C0.436279 8.29431 1.14197 9 2.01249 9H25.8601C26.7306 9 27.4363 8.29431 27.4363 7.42379V7.42379C27.4363 6.81583 27.0866 6.26208 26.5377 6.00069L14.7961 0.40946Z" fill="white"/>
</svg>
