<svg width="27" height="27" viewBox="0 0 27 27" fill="none" xmlns="http://www.w3.org/2000/svg">
<path d="M2.7 6.75C2.7 6.00441 2.09558 5.4 1.35 5.4C0.604416 5.4 0 6.00442 0 6.75V24.3C0 25.785 1.215 27 2.7 27H20.25C20.9956 27 21.6 26.3956 21.6 25.65C21.6 24.9044 20.9956 24.3 20.25 24.3H4.7C3.59543 24.3 2.7 23.4046 2.7 22.3V6.75ZM24.3 0H8.1C6.615 0 5.4 1.215 5.4 2.7V18.9C5.4 20.385 6.615 21.6 8.1 21.6H24.3C25.785 21.6 27 20.385 27 18.9V2.7C27 1.215 25.785 0 24.3 0ZM22.95 10.8C22.95 11.5456 22.3456 12.15 21.6 12.15H10.8C10.0544 12.15 9.45 11.5456 9.45 10.8C9.45 10.0544 10.0544 9.45 10.8 9.45H21.6C22.3456 9.45 22.95 10.0544 22.95 10.8ZM17.55 16.2C17.55 16.9456 16.9456 17.55 16.2 17.55H10.8C10.0544 17.55 9.45 16.9456 9.45 16.2C9.45 15.4544 10.0544 14.85 10.8 14.85H16.2C16.9456 14.85 17.55 15.4544 17.55 16.2ZM22.95 5.4C22.95 6.14558 22.3456 6.75 21.6 6.75H10.8C10.0544 6.75 9.45 6.14558 9.45 5.4C9.45 4.65442 10.0544 4.05 10.8 4.05H21.6C22.3456 4.05 22.95 4.65442 22.95 5.4Z" fill="white"/>
</svg>
